<svg aria-hidden="true" style="position: absolute; width: 0; height: 0; overflow: hidden;" version="1.1" xmlns="http://www.w3.org/2000/svg" xmlns:xlink="http://www.w3.org/1999/xlink">
<defs>
<symbol id="icon-hero-image" viewBox="0 0 56 32">
<path fill="#000" style="fill: var(--color1, #000)" d="M0 0h56.367v32h-56.367v-32z"></path>
<path fill="#2e2f42" style="fill: var(--color2, #2e2f42)" opacity="0.7" d="M0 0h56.367v32h-56.367v-32z"></path>
<path fill="#4d5ae5" style="fill: var(--color3, #4d5ae5)" d="M22.312 19.67h11.816c0.162 0 0.294 0.131 0.294 0.294v3.523c0 0.162-0.131 0.294-0.294 0.294h-11.816c-0.162 0-0.294-0.131-0.294-0.294v-3.523c0-0.162 0.131-0.294 0.294-0.294z"></path>
<path fill="#fff" style="fill: var(--color4, #fff)" d="M25.118 21.651v0.046c0 0.063-0.008 0.12-0.025 0.17s-0.040 0.093-0.071 0.128c-0.030 0.035-0.067 0.062-0.109 0.081s-0.089 0.028-0.141 0.028c-0.051 0-0.098-0.009-0.14-0.028s-0.079-0.046-0.11-0.081-0.055-0.078-0.072-0.128c-0.017-0.050-0.025-0.107-0.025-0.17v-0.046c0-0.063 0.008-0.119 0.025-0.169s0.041-0.093 0.071-0.128c0.031-0.036 0.067-0.062 0.11-0.081s0.089-0.028 0.14-0.028c0.052 0 0.099 0.009 0.141 0.028s0.079 0.045 0.11 0.081c0.031 0.035 0.054 0.078 0.071 0.128s0.025 0.106 0.025 0.169zM24.974 21.697v-0.047c0-0.047-0.005-0.088-0.014-0.123s-0.022-0.066-0.040-0.090c-0.017-0.024-0.038-0.043-0.064-0.055s-0.054-0.019-0.085-0.019-0.060 0.006-0.085 0.019c-0.025 0.012-0.046 0.031-0.064 0.055s-0.030 0.054-0.040 0.090c-0.009 0.036-0.014 0.077-0.014 0.123v0.047c0 0.047 0.005 0.088 0.014 0.124s0.023 0.066 0.040 0.091c0.018 0.024 0.039 0.043 0.064 0.056s0.053 0.018 0.085 0.018c0.032 0 0.061-0.006 0.085-0.018s0.046-0.031 0.063-0.056c0.017-0.025 0.030-0.055 0.039-0.091s0.014-0.077 0.014-0.124zM25.433 21.589v0.502h-0.138v-0.62h0.132l0.006 0.118zM25.623 21.467l-0.001 0.128c-0.008-0.002-0.018-0.003-0.028-0.003s-0.019-0.001-0.029-0.001c-0.024 0-0.044 0.003-0.062 0.010s-0.033 0.016-0.045 0.029c-0.012 0.012-0.021 0.027-0.028 0.045s-0.010 0.037-0.012 0.059l-0.032 0.002c0-0.039 0.004-0.075 0.011-0.108s0.019-0.063 0.034-0.088c0.016-0.025 0.035-0.045 0.058-0.059s0.051-0.021 0.082-0.021c0.008 0 0.017 0.001 0.027 0.002s0.017 0.003 0.022 0.005zM26.124 21.963v-0.752h0.139v0.881h-0.126l-0.013-0.128zM25.72 21.788v-0.012c0-0.047 0.006-0.090 0.017-0.128s0.027-0.072 0.048-0.1c0.021-0.028 0.047-0.050 0.077-0.065s0.064-0.023 0.102-0.023c0.037 0 0.070 0.007 0.099 0.022s0.052 0.035 0.072 0.062c0.020 0.027 0.036 0.059 0.048 0.096s0.020 0.078 0.025 0.124v0.038c-0.005 0.044-0.013 0.085-0.025 0.122s-0.028 0.068-0.048 0.095c-0.020 0.027-0.044 0.047-0.073 0.062s-0.061 0.022-0.099 0.022c-0.037 0-0.071-0.008-0.102-0.023s-0.055-0.038-0.076-0.066c-0.021-0.028-0.037-0.062-0.048-0.1s-0.017-0.080-0.017-0.126zM25.858 21.776v0.012c0 0.028 0.003 0.055 0.008 0.079s0.014 0.046 0.025 0.065c0.011 0.018 0.025 0.033 0.043 0.044s0.039 0.015 0.064 0.015c0.031 0 0.057-0.007 0.077-0.021s0.036-0.032 0.048-0.056c0.012-0.024 0.020-0.050 0.024-0.079v-0.104c-0.002-0.023-0.007-0.044-0.014-0.063s-0.016-0.036-0.028-0.051c-0.012-0.015-0.027-0.026-0.044-0.034s-0.038-0.013-0.061-0.013c-0.025 0-0.047 0.005-0.064 0.016s-0.032 0.025-0.044 0.044c-0.011 0.019-0.019 0.041-0.025 0.065s-0.008 0.051-0.008 0.080zM26.727 22.103c-0.046 0-0.087-0.007-0.124-0.022s-0.068-0.037-0.094-0.064c-0.026-0.027-0.045-0.059-0.059-0.096s-0.021-0.076-0.021-0.119v-0.023c0-0.049 0.007-0.092 0.021-0.132s0.034-0.073 0.059-0.101c0.025-0.028 0.055-0.050 0.089-0.065s0.072-0.022 0.112-0.022c0.044 0 0.083 0.007 0.116 0.022s0.061 0.036 0.083 0.063c0.022 0.027 0.039 0.059 0.049 0.096s0.017 0.078 0.017 0.123v0.059h-0.479v-0.099h0.343v-0.011c-0.001-0.025-0.006-0.048-0.015-0.070s-0.022-0.039-0.041-0.053-0.043-0.020-0.073-0.020c-0.023 0-0.043 0.005-0.061 0.015s-0.032 0.023-0.044 0.042c-0.012 0.018-0.021 0.041-0.028 0.067s-0.009 0.054-0.009 0.087v0.023c0 0.027 0.004 0.052 0.011 0.076s0.019 0.043 0.033 0.060 0.032 0.031 0.053 0.041c0.021 0.010 0.044 0.014 0.071 0.014 0.033 0 0.063-0.007 0.089-0.020s0.049-0.032 0.068-0.057l0.073 0.071c-0.013 0.020-0.031 0.038-0.052 0.056s-0.048 0.032-0.079 0.043c-0.031 0.011-0.066 0.017-0.107 0.017zM27.269 21.589v0.502h-0.138v-0.62h0.132l0.006 0.118zM27.459 21.467l-0.001 0.128c-0.008-0.002-0.018-0.003-0.028-0.003s-0.019-0.001-0.029-0.001c-0.024 0-0.045 0.003-0.062 0.010s-0.033 0.016-0.045 0.029c-0.012 0.012-0.021 0.027-0.028 0.045s-0.010 0.037-0.011 0.059l-0.032 0.002c0-0.039 0.004-0.075 0.012-0.108s0.019-0.063 0.034-0.088c0.016-0.025 0.035-0.045 0.058-0.059s0.051-0.021 0.082-0.021c0.008 0 0.017 0.001 0.027 0.002s0.017 0.003 0.022 0.005zM28.385 21.877c0-0.017-0.003-0.032-0.008-0.046s-0.014-0.026-0.027-0.037-0.031-0.022-0.055-0.032c-0.023-0.011-0.053-0.022-0.089-0.033-0.040-0.012-0.076-0.026-0.11-0.041s-0.062-0.033-0.087-0.053c-0.025-0.020-0.044-0.043-0.058-0.069s-0.021-0.057-0.021-0.091c0-0.034 0.007-0.065 0.021-0.093s0.035-0.052 0.061-0.072c0.027-0.021 0.058-0.037 0.095-0.048s0.076-0.017 0.12-0.017c0.062 0 0.115 0.011 0.16 0.034s0.080 0.054 0.104 0.092c0.024 0.039 0.037 0.081 0.037 0.128h-0.143c0-0.028-0.006-0.052-0.018-0.073s-0.029-0.038-0.053-0.050c-0.023-0.012-0.053-0.018-0.089-0.018-0.034 0-0.062 0.005-0.085 0.015s-0.039 0.024-0.050 0.042-0.017 0.037-0.017 0.060c0 0.016 0.004 0.030 0.011 0.043s0.018 0.024 0.033 0.036c0.015 0.011 0.034 0.021 0.056 0.030s0.049 0.019 0.080 0.028c0.046 0.014 0.087 0.029 0.121 0.046s0.063 0.035 0.086 0.056c0.023 0.021 0.040 0.045 0.052 0.072s0.017 0.056 0.017 0.090c0 0.035-0.007 0.067-0.021 0.095s-0.034 0.052-0.061 0.072c-0.026 0.020-0.057 0.035-0.094 0.045s-0.077 0.015-0.122 0.015c-0.040 0-0.080-0.005-0.119-0.016s-0.074-0.027-0.105-0.049c-0.032-0.022-0.057-0.050-0.076-0.083s-0.028-0.072-0.028-0.116h0.144c0 0.027 0.005 0.050 0.014 0.069s0.023 0.035 0.040 0.047c0.017 0.012 0.036 0.021 0.058 0.026s0.047 0.009 0.072 0.009c0.034 0 0.062-0.005 0.084-0.014s0.040-0.023 0.052-0.040c0.011-0.017 0.017-0.037 0.017-0.060zM28.964 22.103c-0.046 0-0.087-0.007-0.124-0.022s-0.068-0.037-0.094-0.064c-0.026-0.027-0.045-0.059-0.059-0.096s-0.021-0.076-0.021-0.119v-0.023c0-0.049 0.007-0.092 0.021-0.132s0.034-0.073 0.059-0.101c0.025-0.028 0.055-0.050 0.089-0.065s0.072-0.022 0.112-0.022c0.044 0 0.083 0.007 0.116 0.022s0.061 0.036 0.083 0.063c0.022 0.027 0.039 0.059 0.049 0.096s0.017 0.078 0.017 0.123v0.059h-0.479v-0.099h0.343v-0.011c-0.001-0.025-0.006-0.048-0.015-0.070s-0.022-0.039-0.041-0.053-0.043-0.020-0.073-0.020c-0.023 0-0.043 0.005-0.061 0.015s-0.032 0.023-0.044 0.042c-0.012 0.018-0.021 0.041-0.028 0.067s-0.009 0.054-0.009 0.087v0.023c0 0.027 0.004 0.052 0.011 0.076s0.019 0.043 0.033 0.060 0.032 0.031 0.053 0.041c0.021 0.010 0.044 0.014 0.071 0.014 0.033 0 0.063-0.007 0.089-0.020s0.049-0.032 0.068-0.057l0.073 0.071c-0.013 0.020-0.031 0.038-0.052 0.056s-0.048 0.032-0.079 0.043c-0.031 0.011-0.066 0.017-0.107 0.017zM29.505 21.589v0.502h-0.138v-0.62h0.132l0.006 0.118zM29.695 21.467l-0.001 0.128c-0.008-0.002-0.018-0.003-0.028-0.003s-0.019-0.001-0.029-0.001c-0.024 0-0.044 0.003-0.062 0.010s-0.033 0.016-0.045 0.029c-0.012 0.012-0.021 0.027-0.028 0.045s-0.010 0.037-0.012 0.059l-0.032 0.002c0-0.039 0.004-0.075 0.011-0.108s0.019-0.063 0.034-0.088c0.016-0.025 0.035-0.045 0.058-0.059s0.051-0.021 0.082-0.021c0.008 0 0.017 0.001 0.027 0.002s0.017 0.003 0.022 0.005zM30.041 21.982l0.152-0.511h0.143l-0.216 0.62h-0.089l0.010-0.11zM29.924 21.471l0.155 0.513 0.008 0.107h-0.089l-0.217-0.62h0.144zM30.616 21.471v0.62h-0.139v-0.62h0.139zM30.469 21.308c0-0.021 0.007-0.038 0.021-0.052s0.034-0.021 0.058-0.021c0.024 0 0.044 0.007 0.058 0.021s0.021 0.031 0.021 0.052c0 0.021-0.007 0.038-0.021 0.052s-0.033 0.021-0.058 0.021c-0.025 0-0.044-0.007-0.058-0.021s-0.021-0.031-0.021-0.052zM31.068 21.993c0.023 0 0.043-0.004 0.061-0.013s0.033-0.022 0.044-0.038c0.012-0.016 0.018-0.035 0.019-0.056h0.13c-0.001 0.040-0.013 0.077-0.036 0.11s-0.053 0.059-0.091 0.079c-0.038 0.019-0.080 0.029-0.126 0.029-0.047 0-0.089-0.008-0.124-0.024s-0.064-0.039-0.088-0.068c-0.023-0.029-0.041-0.062-0.053-0.099s-0.017-0.078-0.017-0.12v-0.020c0-0.043 0.006-0.083 0.017-0.12s0.029-0.071 0.053-0.1c0.023-0.029 0.053-0.051 0.088-0.067s0.076-0.025 0.123-0.025c0.050 0 0.093 0.010 0.131 0.030s0.067 0.047 0.088 0.082c0.022 0.035 0.033 0.075 0.034 0.122h-0.13c-0.001-0.023-0.007-0.044-0.017-0.062s-0.024-0.034-0.042-0.045c-0.018-0.011-0.040-0.017-0.065-0.017-0.028 0-0.051 0.006-0.069 0.017s-0.033 0.026-0.043 0.046c-0.010 0.019-0.018 0.041-0.022 0.065s-0.006 0.048-0.006 0.074v0.020c0 0.026 0.002 0.050 0.006 0.075s0.011 0.046 0.022 0.065c0.011 0.019 0.025 0.034 0.044 0.045s0.042 0.017 0.070 0.017zM31.749 22.103c-0.046 0-0.087-0.007-0.124-0.022s-0.068-0.037-0.094-0.064c-0.026-0.027-0.045-0.059-0.059-0.096s-0.021-0.076-0.021-0.119v-0.023c0-0.049 0.007-0.092 0.021-0.132s0.034-0.073 0.059-0.101c0.025-0.028 0.055-0.050 0.089-0.065s0.072-0.022 0.112-0.022c0.044 0 0.083 0.007 0.116 0.022s0.061 0.036 0.083 0.063c0.022 0.027 0.039 0.059 0.049 0.096s0.017 0.078 0.017 0.123v0.059h-0.479v-0.099h0.343v-0.011c-0.001-0.025-0.006-0.048-0.015-0.070s-0.022-0.039-0.041-0.053-0.043-0.020-0.073-0.020c-0.023 0-0.043 0.005-0.061 0.015s-0.032 0.023-0.044 0.042c-0.012 0.018-0.021 0.041-0.028 0.067s-0.009 0.054-0.009 0.087v0.023c0 0.027 0.004 0.052 0.011 0.076s0.019 0.043 0.033 0.060 0.032 0.031 0.053 0.041c0.021 0.010 0.044 0.014 0.071 0.014 0.033 0 0.063-0.007 0.089-0.020s0.049-0.032 0.068-0.057l0.073 0.071c-0.013 0.020-0.031 0.038-0.052 0.056s-0.048 0.032-0.079 0.043c-0.031 0.011-0.066 0.017-0.107 0.017z"></path>
<path fill="#fff" style="fill: var(--color4, #fff)" d="M12.278 11.347v0.47h-1.555v-0.47h1.555zM10.919 8.895v2.922h-0.602v-2.922h0.602zM12.075 10.085v0.458h-1.353v-0.458h1.353zM12.276 8.895v0.472h-1.553v-0.472h1.553zM13.375 11.816h-0.582v-2.364c0-0.165 0.032-0.303 0.096-0.415 0.066-0.114 0.157-0.199 0.275-0.257 0.119-0.059 0.26-0.088 0.424-0.088 0.053 0 0.105 0.004 0.155 0.012 0.050 0.007 0.098 0.015 0.145 0.026l-0.006 0.436c-0.025-0.007-0.052-0.011-0.080-0.014s-0.061-0.004-0.098-0.004c-0.070 0-0.129 0.012-0.179 0.036-0.048 0.023-0.085 0.057-0.11 0.102s-0.038 0.101-0.038 0.167v2.364zM13.809 9.645v0.409h-1.339v-0.409h1.339zM14.931 11.816h-0.582v-2.364c0-0.165 0.032-0.303 0.096-0.415 0.066-0.114 0.157-0.199 0.275-0.257 0.119-0.059 0.26-0.088 0.424-0.088 0.053 0 0.105 0.004 0.155 0.012 0.050 0.007 0.098 0.015 0.145 0.026l-0.006 0.436c-0.025-0.007-0.052-0.011-0.080-0.014s-0.061-0.004-0.098-0.004c-0.070 0-0.129 0.012-0.179 0.036-0.048 0.023-0.085 0.057-0.11 0.102s-0.038 0.101-0.038 0.167v2.364zM15.364 9.645v0.409h-1.339v-0.409h1.339zM16.701 11.857c-0.169 0-0.32-0.027-0.454-0.080-0.134-0.055-0.248-0.13-0.341-0.227-0.092-0.096-0.163-0.208-0.213-0.335-0.049-0.128-0.074-0.265-0.074-0.409v-0.080c0-0.165 0.023-0.315 0.070-0.452s0.114-0.255 0.201-0.355c0.088-0.1 0.195-0.177 0.321-0.231 0.126-0.055 0.268-0.082 0.425-0.082 0.154 0 0.29 0.025 0.409 0.076s0.219 0.123 0.299 0.217c0.082 0.094 0.143 0.206 0.185 0.337 0.041 0.13 0.062 0.274 0.062 0.433v0.241h-1.726v-0.385h1.158v-0.044c0-0.080-0.015-0.152-0.044-0.215-0.028-0.064-0.071-0.115-0.128-0.152s-0.131-0.056-0.221-0.056c-0.076 0-0.142 0.017-0.197 0.050s-0.1 0.080-0.134 0.14c-0.033 0.060-0.059 0.131-0.076 0.213-0.016 0.080-0.024 0.168-0.024 0.265v0.080c0 0.087 0.012 0.167 0.036 0.241 0.025 0.074 0.061 0.137 0.106 0.191 0.047 0.053 0.103 0.095 0.169 0.124 0.067 0.029 0.142 0.044 0.227 0.044 0.104 0 0.201-0.020 0.291-0.060 0.091-0.041 0.169-0.104 0.235-0.187l0.281 0.305c-0.046 0.066-0.108 0.128-0.187 0.189-0.078 0.060-0.171 0.11-0.281 0.148-0.11 0.037-0.235 0.056-0.375 0.056zM18.9 11.405c0.071 0 0.134-0.013 0.189-0.040 0.055-0.028 0.098-0.067 0.128-0.116 0.032-0.051 0.049-0.11 0.050-0.179h0.544c-0.001 0.152-0.042 0.288-0.122 0.407-0.080 0.118-0.188 0.211-0.323 0.279-0.135 0.067-0.286 0.1-0.454 0.1-0.169 0-0.316-0.028-0.441-0.084-0.124-0.056-0.228-0.134-0.311-0.233-0.083-0.1-0.145-0.217-0.187-0.349-0.041-0.134-0.062-0.277-0.062-0.429v-0.058c0-0.154 0.021-0.297 0.062-0.429 0.042-0.134 0.104-0.25 0.187-0.349 0.083-0.1 0.187-0.179 0.311-0.235s0.27-0.084 0.438-0.084c0.178 0 0.334 0.034 0.468 0.102 0.135 0.068 0.241 0.166 0.317 0.293 0.078 0.126 0.117 0.275 0.118 0.448h-0.544c-0.001-0.072-0.017-0.138-0.046-0.197-0.028-0.059-0.070-0.106-0.124-0.14-0.053-0.036-0.12-0.054-0.199-0.054-0.084 0-0.153 0.018-0.207 0.054-0.054 0.035-0.095 0.083-0.124 0.145-0.029 0.060-0.050 0.129-0.062 0.207-0.011 0.076-0.016 0.157-0.016 0.241v0.058c0 0.084 0.005 0.165 0.016 0.243s0.031 0.146 0.060 0.207c0.031 0.060 0.073 0.108 0.126 0.143s0.123 0.052 0.209 0.052zM21.292 9.645v0.409h-1.264v-0.409h1.264zM20.341 9.109h0.578v2.053c0 0.063 0.008 0.111 0.024 0.145 0.017 0.033 0.043 0.057 0.076 0.070 0.033 0.012 0.076 0.018 0.126 0.018 0.036 0 0.068-0.001 0.096-0.004 0.029-0.004 0.054-0.008 0.074-0.012l0.002 0.425c-0.049 0.016-0.103 0.029-0.16 0.038s-0.121 0.014-0.191 0.014c-0.127 0-0.238-0.021-0.333-0.062-0.094-0.043-0.166-0.111-0.217-0.205s-0.076-0.217-0.076-0.369v-2.111zM22.314 9.645v2.171h-0.58v-2.171h0.58zM21.697 9.079c0-0.084 0.029-0.154 0.088-0.209s0.138-0.082 0.237-0.082c0.098 0 0.176 0.027 0.235 0.082 0.060 0.055 0.090 0.124 0.090 0.209s-0.030 0.154-0.090 0.209c-0.059 0.055-0.137 0.082-0.235 0.082-0.099 0-0.178-0.027-0.237-0.082s-0.088-0.124-0.088-0.209zM23.612 11.395l0.482-1.75h0.604l-0.732 2.171h-0.365l0.012-0.421zM23.281 9.645l0.484 1.752 0.010 0.419h-0.367l-0.732-2.171h0.606zM26.010 11.857c-0.169 0-0.32-0.027-0.454-0.080-0.134-0.055-0.247-0.13-0.341-0.227-0.092-0.096-0.163-0.208-0.213-0.335-0.049-0.128-0.074-0.265-0.074-0.409v-0.080c0-0.165 0.023-0.315 0.070-0.452s0.114-0.255 0.201-0.355c0.088-0.1 0.195-0.177 0.321-0.231 0.126-0.055 0.268-0.082 0.425-0.082 0.154 0 0.29 0.025 0.409 0.076s0.219 0.123 0.299 0.217c0.082 0.094 0.143 0.206 0.185 0.337 0.041 0.13 0.062 0.274 0.062 0.433v0.241h-1.726v-0.385h1.158v-0.044c0-0.080-0.015-0.152-0.044-0.215-0.028-0.064-0.071-0.115-0.128-0.152s-0.131-0.056-0.221-0.056c-0.076 0-0.142 0.017-0.197 0.050s-0.1 0.080-0.134 0.14c-0.033 0.060-0.059 0.131-0.076 0.213-0.016 0.080-0.024 0.168-0.024 0.265v0.080c0 0.087 0.012 0.167 0.036 0.241 0.025 0.074 0.061 0.137 0.106 0.191 0.047 0.053 0.103 0.095 0.169 0.124 0.067 0.029 0.143 0.044 0.227 0.044 0.104 0 0.201-0.020 0.291-0.060 0.091-0.041 0.169-0.104 0.235-0.187l0.281 0.305c-0.046 0.066-0.108 0.128-0.187 0.189-0.078 0.060-0.171 0.11-0.281 0.148-0.11 0.037-0.235 0.056-0.375 0.056zM29.976 11.052c0-0.052-0.008-0.099-0.024-0.14-0.015-0.043-0.043-0.082-0.084-0.116-0.041-0.036-0.1-0.072-0.175-0.106s-0.172-0.071-0.291-0.108c-0.132-0.043-0.258-0.091-0.377-0.144-0.118-0.054-0.222-0.116-0.313-0.187-0.090-0.072-0.16-0.156-0.213-0.251-0.051-0.095-0.076-0.205-0.076-0.331 0-0.122 0.027-0.232 0.080-0.331 0.053-0.1 0.128-0.186 0.225-0.257 0.096-0.072 0.21-0.128 0.341-0.167 0.132-0.039 0.278-0.058 0.436-0.058 0.215 0 0.403 0.039 0.564 0.116s0.285 0.184 0.373 0.319c0.090 0.135 0.134 0.29 0.134 0.464h-0.598c0-0.086-0.018-0.161-0.054-0.225-0.035-0.066-0.088-0.117-0.161-0.155-0.071-0.037-0.16-0.056-0.269-0.056-0.104 0-0.191 0.016-0.261 0.048-0.070 0.031-0.122 0.073-0.157 0.126-0.035 0.052-0.052 0.111-0.052 0.177 0 0.050 0.012 0.094 0.036 0.134 0.025 0.040 0.063 0.078 0.112 0.112s0.11 0.068 0.183 0.098c0.072 0.031 0.156 0.061 0.251 0.090 0.159 0.048 0.299 0.102 0.419 0.163 0.122 0.060 0.224 0.128 0.305 0.203s0.143 0.16 0.185 0.255 0.062 0.203 0.062 0.323c0 0.127-0.025 0.241-0.074 0.341s-0.121 0.185-0.215 0.255c-0.094 0.070-0.205 0.122-0.335 0.159s-0.275 0.054-0.436 0.054c-0.144 0-0.287-0.019-0.427-0.056-0.14-0.039-0.268-0.097-0.383-0.175-0.114-0.078-0.205-0.177-0.273-0.297s-0.102-0.263-0.102-0.427h0.604c0 0.091 0.014 0.168 0.042 0.231s0.068 0.114 0.118 0.152c0.052 0.039 0.114 0.067 0.185 0.084 0.072 0.017 0.151 0.026 0.237 0.026 0.104 0 0.19-0.015 0.257-0.044 0.068-0.029 0.118-0.070 0.151-0.122 0.033-0.052 0.050-0.111 0.050-0.177zM30.941 10.753v-0.042c0-0.159 0.023-0.306 0.068-0.44 0.046-0.135 0.112-0.252 0.199-0.351s0.194-0.176 0.321-0.231c0.127-0.056 0.273-0.084 0.438-0.084s0.311 0.028 0.439 0.084c0.128 0.055 0.236 0.132 0.323 0.231 0.088 0.099 0.155 0.216 0.201 0.351 0.045 0.134 0.068 0.28 0.068 0.44v0.042c0 0.158-0.023 0.304-0.068 0.44-0.045 0.134-0.112 0.251-0.201 0.351-0.087 0.099-0.194 0.176-0.321 0.231s-0.273 0.082-0.438 0.082c-0.165 0-0.311-0.027-0.439-0.082-0.127-0.055-0.235-0.132-0.323-0.231-0.087-0.1-0.153-0.217-0.199-0.351-0.046-0.135-0.068-0.282-0.068-0.44zM31.519 10.711v0.042c0 0.091 0.008 0.176 0.024 0.255s0.041 0.149 0.076 0.209c0.036 0.059 0.083 0.105 0.14 0.139s0.128 0.050 0.211 0.050c0.080 0 0.149-0.017 0.207-0.050s0.104-0.080 0.139-0.139c0.035-0.060 0.060-0.13 0.076-0.209 0.017-0.079 0.026-0.164 0.026-0.255v-0.042c0-0.088-0.009-0.171-0.026-0.249-0.016-0.079-0.042-0.148-0.078-0.209-0.035-0.062-0.081-0.11-0.138-0.145s-0.127-0.052-0.209-0.052-0.151 0.017-0.209 0.052c-0.056 0.035-0.102 0.083-0.139 0.145-0.035 0.060-0.060 0.13-0.076 0.209-0.016 0.078-0.024 0.161-0.024 0.249zM34.045 8.734v3.083h-0.58v-3.083h0.58zM35.89 11.297v-1.652h0.578v2.171h-0.544l-0.034-0.52zM35.954 10.851l0.171-0.004c0 0.145-0.017 0.279-0.050 0.403-0.033 0.123-0.084 0.23-0.151 0.321-0.067 0.090-0.151 0.16-0.253 0.211-0.102 0.050-0.221 0.074-0.359 0.074-0.106 0-0.203-0.015-0.293-0.044-0.088-0.031-0.165-0.078-0.229-0.142-0.063-0.066-0.112-0.149-0.148-0.251-0.035-0.103-0.052-0.227-0.052-0.371v-1.403h0.578v1.407c0 0.064 0.007 0.118 0.022 0.163 0.016 0.044 0.038 0.080 0.066 0.108s0.061 0.048 0.098 0.060c0.039 0.012 0.082 0.018 0.128 0.018 0.119 0 0.213-0.024 0.281-0.072 0.070-0.048 0.118-0.114 0.147-0.197 0.029-0.084 0.044-0.178 0.044-0.281zM38.055 9.645v0.409h-1.264v-0.409h1.264zM37.104 9.109h0.578v2.053c0 0.063 0.008 0.111 0.024 0.145 0.017 0.033 0.043 0.057 0.076 0.070 0.033 0.012 0.076 0.018 0.126 0.018 0.036 0 0.068-0.001 0.096-0.004 0.029-0.004 0.054-0.008 0.074-0.012l0.002 0.425c-0.050 0.016-0.103 0.029-0.161 0.038s-0.121 0.014-0.191 0.014c-0.127 0-0.238-0.021-0.333-0.062-0.094-0.043-0.166-0.111-0.217-0.205s-0.076-0.217-0.076-0.369v-2.111zM39.076 9.645v2.171h-0.58v-2.171h0.58zM38.46 9.079c0-0.084 0.029-0.154 0.088-0.209s0.138-0.082 0.237-0.082c0.098 0 0.176 0.027 0.235 0.082 0.060 0.055 0.090 0.124 0.090 0.209s-0.030 0.154-0.090 0.209c-0.059 0.055-0.137 0.082-0.235 0.082-0.099 0-0.178-0.027-0.237-0.082s-0.088-0.124-0.088-0.209zM39.544 10.753v-0.042c0-0.159 0.023-0.306 0.068-0.44 0.045-0.135 0.112-0.252 0.199-0.351s0.194-0.176 0.321-0.231c0.127-0.056 0.273-0.084 0.438-0.084s0.311 0.028 0.44 0.084c0.128 0.055 0.236 0.132 0.323 0.231 0.088 0.099 0.155 0.216 0.201 0.351 0.045 0.134 0.068 0.28 0.068 0.44v0.042c0 0.158-0.023 0.304-0.068 0.44-0.045 0.134-0.112 0.251-0.201 0.351-0.087 0.099-0.194 0.176-0.321 0.231s-0.273 0.082-0.438 0.082c-0.165 0-0.311-0.027-0.44-0.082-0.127-0.055-0.235-0.132-0.323-0.231-0.087-0.1-0.153-0.217-0.199-0.351-0.045-0.135-0.068-0.282-0.068-0.44zM40.122 10.711v0.042c0 0.091 0.008 0.176 0.024 0.255s0.042 0.149 0.076 0.209c0.036 0.059 0.083 0.105 0.14 0.139s0.128 0.050 0.211 0.050c0.080 0 0.149-0.017 0.207-0.050s0.104-0.080 0.139-0.139c0.035-0.060 0.060-0.13 0.076-0.209 0.017-0.079 0.026-0.164 0.026-0.255v-0.042c0-0.088-0.009-0.171-0.026-0.249-0.016-0.079-0.042-0.148-0.078-0.209-0.035-0.062-0.081-0.11-0.138-0.145s-0.127-0.052-0.209-0.052-0.151 0.017-0.209 0.052c-0.056 0.035-0.102 0.083-0.138 0.145-0.035 0.060-0.060 0.13-0.076 0.209-0.016 0.078-0.024 0.161-0.024 0.249zM42.604 10.109v1.708h-0.578v-2.171h0.542l0.036 0.464zM42.52 10.655h-0.157c0-0.161 0.021-0.305 0.062-0.433 0.041-0.13 0.1-0.24 0.175-0.331 0.075-0.092 0.164-0.163 0.267-0.211 0.104-0.050 0.221-0.074 0.349-0.074 0.102 0 0.195 0.015 0.279 0.044s0.157 0.076 0.217 0.14c0.062 0.064 0.108 0.149 0.14 0.255 0.033 0.106 0.050 0.235 0.050 0.387v1.385h-0.582v-1.387c0-0.096-0.013-0.171-0.040-0.225s-0.066-0.091-0.118-0.112c-0.051-0.023-0.114-0.034-0.189-0.034-0.078 0-0.145 0.015-0.203 0.046-0.056 0.031-0.103 0.074-0.14 0.128-0.036 0.053-0.064 0.116-0.082 0.189s-0.028 0.15-0.028 0.233zM45.598 11.216c0-0.041-0.012-0.079-0.036-0.112s-0.069-0.064-0.134-0.092c-0.064-0.029-0.157-0.056-0.279-0.080-0.11-0.024-0.212-0.054-0.307-0.090-0.094-0.037-0.175-0.082-0.245-0.134-0.068-0.052-0.122-0.114-0.161-0.185-0.039-0.072-0.058-0.155-0.058-0.247 0-0.091 0.019-0.177 0.058-0.257 0.040-0.080 0.097-0.151 0.171-0.213 0.075-0.063 0.166-0.112 0.273-0.147 0.108-0.036 0.23-0.054 0.365-0.054 0.189 0 0.351 0.030 0.486 0.090 0.136 0.060 0.241 0.143 0.313 0.249 0.074 0.104 0.11 0.223 0.11 0.357h-0.578c0-0.056-0.012-0.106-0.036-0.15-0.023-0.046-0.059-0.081-0.108-0.106-0.048-0.027-0.111-0.040-0.189-0.040-0.064 0-0.12 0.011-0.167 0.034-0.047 0.021-0.083 0.051-0.108 0.088-0.024 0.036-0.036 0.076-0.036 0.12 0 0.033 0.007 0.064 0.020 0.090 0.015 0.025 0.038 0.049 0.070 0.070s0.074 0.041 0.124 0.060c0.052 0.017 0.116 0.033 0.193 0.048 0.157 0.032 0.296 0.074 0.419 0.126 0.123 0.051 0.221 0.12 0.293 0.209 0.072 0.087 0.108 0.201 0.108 0.343 0 0.096-0.021 0.185-0.064 0.265s-0.104 0.151-0.185 0.211c-0.080 0.059-0.177 0.105-0.289 0.139-0.111 0.032-0.236 0.048-0.375 0.048-0.202 0-0.373-0.036-0.514-0.108-0.139-0.072-0.245-0.164-0.317-0.275-0.071-0.112-0.106-0.227-0.106-0.345h0.548c0.003 0.079 0.023 0.142 0.060 0.191 0.039 0.048 0.088 0.083 0.147 0.104 0.060 0.021 0.125 0.032 0.195 0.032 0.075 0 0.137-0.010 0.187-0.030 0.050-0.021 0.087-0.050 0.112-0.084 0.027-0.036 0.040-0.078 0.040-0.124zM12.107 16.22h-0.582v-2.364c0-0.165 0.032-0.303 0.096-0.415 0.066-0.114 0.157-0.199 0.275-0.257 0.119-0.059 0.26-0.088 0.423-0.088 0.054 0 0.105 0.004 0.155 0.012 0.049 0.007 0.098 0.015 0.145 0.026l-0.006 0.436c-0.025-0.007-0.052-0.011-0.080-0.014s-0.061-0.004-0.098-0.004c-0.070 0-0.129 0.012-0.179 0.036-0.048 0.023-0.085 0.057-0.11 0.102s-0.038 0.101-0.038 0.167v2.364zM12.54 14.049v0.409h-1.339v-0.409h1.339zM12.833 15.157v-0.042c0-0.159 0.023-0.306 0.068-0.44 0.046-0.135 0.112-0.252 0.199-0.351s0.194-0.176 0.321-0.231c0.127-0.056 0.273-0.084 0.438-0.084s0.311 0.028 0.44 0.084c0.128 0.055 0.236 0.132 0.323 0.231 0.088 0.099 0.155 0.216 0.201 0.351 0.046 0.134 0.068 0.28 0.068 0.44v0.042c0 0.158-0.023 0.304-0.068 0.44-0.046 0.134-0.112 0.251-0.201 0.351-0.087 0.099-0.194 0.176-0.321 0.231s-0.273 0.082-0.438 0.082c-0.165 0-0.311-0.027-0.44-0.082-0.127-0.055-0.235-0.132-0.323-0.231-0.087-0.1-0.153-0.217-0.199-0.351-0.046-0.135-0.068-0.282-0.068-0.44zM13.411 15.114v0.042c0 0.091 0.008 0.176 0.024 0.255s0.042 0.149 0.076 0.209c0.036 0.059 0.083 0.105 0.141 0.139s0.128 0.050 0.211 0.050c0.080 0 0.149-0.017 0.207-0.050s0.104-0.080 0.139-0.139c0.035-0.060 0.060-0.13 0.076-0.209 0.017-0.079 0.026-0.164 0.026-0.255v-0.042c0-0.088-0.009-0.171-0.026-0.249-0.016-0.079-0.042-0.148-0.078-0.209-0.035-0.062-0.081-0.11-0.138-0.145s-0.127-0.052-0.209-0.052-0.151 0.017-0.209 0.052c-0.056 0.035-0.102 0.083-0.139 0.145-0.035 0.060-0.060 0.13-0.076 0.209-0.016 0.078-0.024 0.161-0.024 0.249zM15.906 14.522v1.698h-0.578v-2.171h0.544l0.034 0.474zM16.56 14.035l-0.010 0.536c-0.028-0.004-0.062-0.007-0.102-0.010-0.039-0.004-0.074-0.006-0.106-0.006-0.082 0-0.152 0.011-0.213 0.032-0.059 0.020-0.108 0.050-0.149 0.090-0.039 0.040-0.068 0.089-0.088 0.146-0.019 0.058-0.029 0.123-0.032 0.197l-0.116-0.036c0-0.14 0.014-0.27 0.042-0.387 0.028-0.119 0.069-0.223 0.122-0.311 0.055-0.088 0.122-0.157 0.201-0.205s0.169-0.072 0.271-0.072c0.032 0 0.065 0.003 0.098 0.008 0.033 0.004 0.061 0.010 0.082 0.018zM18.459 13.298l0.61 1.333 0.61-1.333h0.656l-0.961 1.858v1.064h-0.61v-1.064l-0.963-1.858h0.658zM20.423 15.157v-0.042c0-0.159 0.023-0.306 0.068-0.44 0.045-0.135 0.112-0.252 0.199-0.351s0.194-0.176 0.321-0.231c0.127-0.056 0.273-0.084 0.438-0.084s0.311 0.028 0.439 0.084c0.128 0.055 0.236 0.132 0.323 0.231 0.088 0.099 0.155 0.216 0.201 0.351 0.045 0.134 0.068 0.28 0.068 0.44v0.042c0 0.158-0.023 0.304-0.068 0.44-0.046 0.134-0.112 0.251-0.201 0.351-0.087 0.099-0.194 0.176-0.321 0.231s-0.273 0.082-0.438 0.082c-0.165 0-0.311-0.027-0.439-0.082-0.127-0.055-0.235-0.132-0.323-0.231-0.087-0.1-0.153-0.217-0.199-0.351-0.046-0.135-0.068-0.282-0.068-0.44zM21.001 15.114v0.042c0 0.091 0.008 0.176 0.024 0.255s0.041 0.149 0.076 0.209c0.036 0.059 0.083 0.105 0.14 0.139s0.128 0.050 0.211 0.050c0.080 0 0.149-0.017 0.207-0.050s0.104-0.080 0.138-0.139c0.035-0.060 0.060-0.13 0.076-0.209 0.017-0.079 0.026-0.164 0.026-0.255v-0.042c0-0.088-0.009-0.171-0.026-0.249-0.016-0.079-0.042-0.148-0.078-0.209-0.035-0.062-0.081-0.11-0.139-0.145s-0.127-0.052-0.209-0.052-0.151 0.017-0.209 0.052c-0.056 0.035-0.102 0.083-0.139 0.145-0.035 0.060-0.060 0.13-0.076 0.209-0.016 0.078-0.024 0.161-0.024 0.249zM24.202 15.7v-1.652h0.578v2.171h-0.544l-0.034-0.52zM24.266 15.255l0.171-0.004c0 0.145-0.017 0.279-0.050 0.403-0.033 0.123-0.084 0.23-0.151 0.321-0.067 0.090-0.151 0.16-0.253 0.211-0.102 0.050-0.221 0.074-0.359 0.074-0.106 0-0.203-0.015-0.293-0.044-0.088-0.031-0.165-0.078-0.229-0.142-0.063-0.066-0.112-0.149-0.149-0.251-0.035-0.103-0.052-0.227-0.052-0.371v-1.403h0.578v1.407c0 0.064 0.007 0.118 0.022 0.163 0.016 0.044 0.038 0.080 0.066 0.108s0.061 0.048 0.098 0.060c0.039 0.012 0.082 0.018 0.128 0.018 0.119 0 0.213-0.024 0.281-0.072 0.070-0.048 0.118-0.114 0.146-0.197 0.029-0.084 0.044-0.178 0.044-0.281zM25.882 14.522v1.698h-0.578v-2.171h0.544l0.034 0.474zM26.536 14.035l-0.010 0.536c-0.028-0.004-0.062-0.007-0.102-0.010-0.039-0.004-0.074-0.006-0.106-0.006-0.082 0-0.152 0.011-0.213 0.032-0.059 0.020-0.108 0.050-0.148 0.090-0.039 0.040-0.068 0.089-0.088 0.146-0.019 0.058-0.029 0.123-0.032 0.197l-0.116-0.036c0-0.14 0.014-0.27 0.042-0.387 0.028-0.119 0.069-0.223 0.122-0.311 0.055-0.088 0.122-0.157 0.201-0.205s0.169-0.072 0.271-0.072c0.032 0 0.065 0.003 0.098 0.008 0.033 0.004 0.061 0.010 0.082 0.018zM29.177 14.938h-0.751l-0.004-0.413h0.63c0.111 0 0.202-0.014 0.273-0.042 0.071-0.029 0.124-0.072 0.159-0.126 0.036-0.056 0.054-0.124 0.054-0.205 0-0.091-0.017-0.165-0.052-0.221-0.033-0.056-0.086-0.097-0.159-0.122-0.071-0.025-0.163-0.038-0.275-0.038h-0.417v2.45h-0.602v-2.922h1.020c0.17 0 0.322 0.016 0.456 0.048 0.135 0.032 0.25 0.081 0.343 0.146s0.165 0.148 0.215 0.249c0.050 0.099 0.074 0.217 0.074 0.353 0 0.12-0.027 0.232-0.082 0.333-0.053 0.102-0.139 0.185-0.255 0.249-0.115 0.064-0.266 0.1-0.452 0.106l-0.175 0.155zM29.151 16.22h-0.889l0.235-0.47h0.654c0.106 0 0.192-0.017 0.259-0.050 0.067-0.035 0.116-0.082 0.148-0.14s0.048-0.126 0.048-0.203c0-0.086-0.015-0.16-0.044-0.223-0.028-0.063-0.074-0.111-0.136-0.145-0.063-0.035-0.146-0.052-0.249-0.052h-0.58l0.004-0.413h0.723l0.139 0.162c0.178-0.003 0.321 0.029 0.429 0.094 0.11 0.064 0.189 0.148 0.239 0.251 0.051 0.103 0.076 0.213 0.076 0.331 0 0.187-0.041 0.345-0.122 0.474-0.082 0.127-0.201 0.223-0.359 0.287-0.157 0.064-0.348 0.096-0.574 0.096zM31.988 15.7v-1.652h0.578v2.171h-0.544l-0.034-0.52zM32.053 15.255l0.171-0.004c0 0.145-0.017 0.279-0.050 0.403-0.033 0.123-0.084 0.23-0.151 0.321-0.067 0.090-0.151 0.16-0.253 0.211-0.102 0.050-0.221 0.074-0.359 0.074-0.106 0-0.203-0.015-0.293-0.044-0.088-0.031-0.165-0.078-0.229-0.142-0.063-0.066-0.112-0.149-0.148-0.251-0.035-0.103-0.052-0.227-0.052-0.371v-1.403h0.578v1.407c0 0.064 0.007 0.118 0.022 0.163 0.016 0.044 0.038 0.080 0.066 0.108s0.061 0.048 0.098 0.060c0.039 0.012 0.082 0.018 0.128 0.018 0.119 0 0.213-0.024 0.281-0.072 0.070-0.048 0.118-0.114 0.147-0.197 0.029-0.084 0.044-0.178 0.044-0.281zM34.264 15.62c0-0.041-0.012-0.079-0.036-0.112s-0.069-0.064-0.134-0.092c-0.064-0.029-0.157-0.056-0.279-0.080-0.11-0.024-0.212-0.054-0.307-0.090-0.094-0.037-0.175-0.082-0.245-0.134-0.068-0.052-0.122-0.114-0.161-0.185-0.039-0.072-0.058-0.155-0.058-0.247 0-0.091 0.019-0.177 0.058-0.257 0.040-0.080 0.097-0.151 0.171-0.213 0.075-0.063 0.166-0.112 0.273-0.147 0.108-0.036 0.23-0.054 0.365-0.054 0.189 0 0.351 0.030 0.486 0.090 0.136 0.060 0.241 0.143 0.313 0.249 0.074 0.104 0.11 0.223 0.11 0.357h-0.578c0-0.056-0.012-0.106-0.036-0.15-0.023-0.046-0.059-0.081-0.108-0.106-0.048-0.027-0.111-0.040-0.189-0.040-0.064 0-0.12 0.011-0.167 0.034-0.047 0.021-0.083 0.051-0.108 0.088-0.024 0.036-0.036 0.076-0.036 0.12 0 0.033 0.007 0.064 0.020 0.090 0.015 0.025 0.038 0.049 0.070 0.070s0.074 0.041 0.124 0.060c0.052 0.017 0.116 0.033 0.193 0.048 0.157 0.032 0.296 0.074 0.419 0.126 0.123 0.051 0.221 0.12 0.293 0.209 0.072 0.087 0.108 0.201 0.108 0.343 0 0.096-0.021 0.185-0.064 0.265s-0.104 0.151-0.185 0.211c-0.080 0.059-0.177 0.105-0.289 0.139-0.111 0.032-0.236 0.048-0.375 0.048-0.202 0-0.373-0.036-0.514-0.108-0.139-0.072-0.245-0.164-0.317-0.275-0.071-0.112-0.106-0.227-0.106-0.345h0.548c0.003 0.079 0.023 0.142 0.060 0.191 0.039 0.048 0.088 0.083 0.147 0.104 0.060 0.021 0.125 0.032 0.195 0.032 0.075 0 0.137-0.010 0.187-0.030 0.050-0.021 0.087-0.050 0.112-0.084 0.027-0.036 0.040-0.078 0.040-0.124zM35.894 14.049v2.171h-0.58v-2.171h0.58zM35.278 13.483c0-0.084 0.029-0.154 0.088-0.209s0.138-0.082 0.237-0.082c0.098 0 0.176 0.027 0.235 0.082 0.060 0.055 0.090 0.124 0.090 0.209s-0.030 0.154-0.090 0.209c-0.059 0.055-0.137 0.082-0.235 0.082-0.099 0-0.178-0.027-0.237-0.082s-0.088-0.124-0.088-0.209zM37.019 14.512v1.708h-0.578v-2.171h0.542l0.036 0.464zM36.935 15.058h-0.157c0-0.161 0.021-0.305 0.062-0.433 0.042-0.13 0.1-0.24 0.175-0.331 0.075-0.092 0.164-0.163 0.267-0.211 0.104-0.050 0.221-0.074 0.349-0.074 0.102 0 0.195 0.015 0.279 0.044s0.156 0.076 0.217 0.14c0.062 0.064 0.108 0.149 0.14 0.255 0.033 0.106 0.050 0.235 0.050 0.387v1.385h-0.582v-1.387c0-0.096-0.013-0.171-0.040-0.225s-0.066-0.091-0.118-0.112c-0.051-0.023-0.114-0.034-0.189-0.034-0.078 0-0.145 0.015-0.203 0.046-0.056 0.031-0.103 0.074-0.14 0.128-0.036 0.053-0.064 0.116-0.082 0.189s-0.028 0.15-0.028 0.233zM39.839 16.26c-0.169 0-0.32-0.027-0.454-0.080-0.134-0.055-0.248-0.13-0.341-0.227-0.092-0.096-0.163-0.208-0.213-0.335-0.049-0.128-0.074-0.265-0.074-0.409v-0.080c0-0.165 0.023-0.315 0.070-0.452s0.114-0.255 0.201-0.355c0.088-0.1 0.195-0.177 0.321-0.231 0.126-0.055 0.268-0.082 0.425-0.082 0.154 0 0.29 0.025 0.409 0.076s0.219 0.123 0.299 0.217c0.082 0.094 0.143 0.206 0.185 0.337 0.041 0.13 0.062 0.274 0.062 0.433v0.241h-1.726v-0.385h1.158v-0.044c0-0.080-0.015-0.152-0.044-0.215-0.028-0.064-0.071-0.115-0.128-0.152s-0.131-0.056-0.221-0.056c-0.076 0-0.142 0.017-0.197 0.050s-0.1 0.080-0.134 0.14c-0.033 0.060-0.059 0.131-0.076 0.213-0.016 0.080-0.024 0.168-0.024 0.265v0.080c0 0.087 0.012 0.167 0.036 0.241 0.025 0.074 0.061 0.137 0.106 0.191 0.047 0.053 0.103 0.095 0.169 0.124 0.067 0.029 0.143 0.044 0.227 0.044 0.104 0 0.201-0.020 0.291-0.060 0.091-0.041 0.169-0.104 0.235-0.187l0.281 0.305c-0.045 0.066-0.108 0.128-0.187 0.189-0.078 0.060-0.171 0.11-0.281 0.148-0.11 0.038-0.235 0.056-0.375 0.056zM42.315 15.62c0-0.041-0.012-0.079-0.036-0.112s-0.069-0.064-0.134-0.092c-0.064-0.029-0.157-0.056-0.279-0.080-0.11-0.024-0.212-0.054-0.307-0.090-0.094-0.037-0.175-0.082-0.245-0.134-0.068-0.052-0.122-0.114-0.16-0.185-0.039-0.072-0.058-0.155-0.058-0.247 0-0.091 0.019-0.177 0.058-0.257 0.040-0.080 0.097-0.151 0.171-0.213 0.075-0.063 0.166-0.112 0.273-0.147 0.108-0.036 0.23-0.054 0.365-0.054 0.189 0 0.351 0.030 0.486 0.090 0.136 0.060 0.241 0.143 0.313 0.249 0.074 0.104 0.11 0.223 0.11 0.357h-0.578c0-0.056-0.012-0.106-0.036-0.15-0.023-0.046-0.059-0.081-0.108-0.106-0.048-0.027-0.111-0.040-0.189-0.040-0.064 0-0.12 0.011-0.167 0.034-0.047 0.021-0.083 0.051-0.108 0.088-0.024 0.036-0.036 0.076-0.036 0.12 0 0.033 0.007 0.064 0.020 0.090 0.015 0.025 0.038 0.049 0.070 0.070s0.074 0.041 0.124 0.060c0.052 0.017 0.116 0.033 0.193 0.048 0.156 0.032 0.296 0.074 0.419 0.126 0.123 0.051 0.221 0.12 0.293 0.209 0.072 0.087 0.108 0.201 0.108 0.343 0 0.096-0.021 0.185-0.064 0.265s-0.104 0.151-0.185 0.211c-0.080 0.059-0.177 0.105-0.289 0.139-0.111 0.032-0.236 0.048-0.375 0.048-0.202 0-0.373-0.036-0.514-0.108-0.139-0.072-0.245-0.164-0.317-0.275-0.071-0.112-0.106-0.227-0.106-0.345h0.548c0.003 0.079 0.023 0.142 0.060 0.191 0.039 0.048 0.088 0.083 0.147 0.104 0.060 0.021 0.125 0.032 0.195 0.032 0.075 0 0.137-0.010 0.187-0.030 0.049-0.021 0.087-0.050 0.112-0.084 0.027-0.036 0.040-0.078 0.040-0.124zM44.509 15.62c0-0.041-0.012-0.079-0.036-0.112s-0.069-0.064-0.134-0.092c-0.064-0.029-0.157-0.056-0.279-0.080-0.11-0.024-0.212-0.054-0.307-0.090-0.094-0.037-0.175-0.082-0.245-0.134-0.068-0.052-0.122-0.114-0.16-0.185-0.039-0.072-0.058-0.155-0.058-0.247 0-0.091 0.019-0.177 0.058-0.257 0.040-0.080 0.097-0.151 0.171-0.213 0.075-0.063 0.166-0.112 0.273-0.147 0.108-0.036 0.23-0.054 0.365-0.054 0.189 0 0.351 0.030 0.486 0.090 0.136 0.060 0.241 0.143 0.313 0.249 0.074 0.104 0.11 0.223 0.11 0.357h-0.578c0-0.056-0.012-0.106-0.036-0.15-0.023-0.046-0.059-0.081-0.108-0.106-0.048-0.027-0.111-0.040-0.189-0.040-0.064 0-0.12 0.011-0.167 0.034-0.047 0.021-0.083 0.051-0.108 0.088-0.024 0.036-0.036 0.076-0.036 0.12 0 0.033 0.007 0.064 0.020 0.090 0.015 0.025 0.038 0.049 0.070 0.070s0.074 0.041 0.124 0.060c0.052 0.017 0.116 0.033 0.193 0.048 0.157 0.032 0.296 0.074 0.419 0.126 0.123 0.051 0.221 0.12 0.293 0.209 0.072 0.087 0.108 0.201 0.108 0.343 0 0.096-0.021 0.185-0.064 0.265s-0.104 0.151-0.185 0.211c-0.080 0.059-0.177 0.105-0.289 0.139-0.111 0.032-0.236 0.048-0.375 0.048-0.202 0-0.373-0.036-0.514-0.108-0.139-0.072-0.245-0.164-0.317-0.275-0.071-0.112-0.106-0.227-0.106-0.345h0.548c0.003 0.079 0.023 0.142 0.060 0.191 0.039 0.048 0.088 0.083 0.147 0.104 0.060 0.021 0.125 0.032 0.195 0.032 0.075 0 0.137-0.010 0.187-0.030 0.049-0.021 0.087-0.050 0.112-0.084 0.027-0.036 0.040-0.078 0.040-0.124z"></path>
</symbol>
</defs>
</svg>
